<?xml version="1.0" encoding="UTF-8"?>
<svg id="Layer_2" data-name="Layer 2" xmlns="http://www.w3.org/2000/svg" viewBox="0 0 129.73 69.97">
  <defs>
    <style>
      .cls-1 {
        fill: #94a27b;
      }

      .cls-2 {
        fill: #ebebeb;
      }

      .cls-3 {
        fill: none;
        stroke: #94a27b;
        stroke-miterlimit: 10;
      }
    </style>
  </defs>
  <g id="Layer_1-2" data-name="Layer 1">
    <g>
      <ellipse class="cls-3" cx="65.62" cy="36.73" rx="64.73" ry="30.46" transform="translate(-6.24 14.57) rotate(-12.1)"/>
      <ellipse class="cls-1" cx="63.62" cy="32.73" rx="64.73" ry="30.46" transform="translate(-5.45 14.06) rotate(-12.1)"/>
      <g>
        <path class="cls-2" d="m24.47,27.03c.79-.16,1.93-.25,3.01-.25,1.67,0,2.75.31,3.51.99.61.54.95,1.37.95,2.3,0,1.6-1.01,2.67-2.29,3.1v.05c.94.32,1.5,1.19,1.78,2.45.4,1.69.68,2.86.94,3.33h-1.62c-.2-.34-.47-1.39-.81-2.9-.36-1.67-1.01-2.3-2.43-2.36h-1.48v5.26h-1.57v-11.97Zm1.57,5.53h1.6c1.67,0,2.74-.92,2.74-2.3,0-1.57-1.13-2.25-2.79-2.27-.76,0-1.3.07-1.55.14v4.43Z"/>
        <path class="cls-2" d="m35.06,34.94c.04,2.14,1.4,3.03,2.99,3.03,1.13,0,1.82-.2,2.41-.45l.27,1.13c-.56.25-1.51.54-2.9.54-2.68,0-4.29-1.76-4.29-4.39s1.55-4.7,4.09-4.7c2.84,0,3.6,2.5,3.6,4.11,0,.32-.04.58-.05.74h-6.12Zm4.65-1.13c.02-1.01-.41-2.58-2.2-2.58-1.6,0-2.3,1.48-2.43,2.58h4.63Z"/>
        <path class="cls-2" d="m48.02,39.01l-.13-1.1h-.05c-.49.68-1.42,1.3-2.67,1.3-1.76,0-2.67-1.24-2.67-2.5,0-2.11,1.87-3.26,5.24-3.24v-.18c0-.72-.2-2.02-1.98-2.02-.81,0-1.66.25-2.27.65l-.36-1.04c.72-.47,1.76-.77,2.86-.77,2.67,0,3.31,1.82,3.31,3.57v3.26c0,.76.04,1.5.14,2.09h-1.44Zm-.23-4.45c-1.73-.04-3.69.27-3.69,1.96,0,1.03.68,1.51,1.49,1.51,1.13,0,1.85-.72,2.11-1.46.05-.16.09-.34.09-.5v-1.51Z"/>
        <path class="cls-2" d="m59.39,26.22v10.53c0,.77.02,1.66.07,2.25h-1.42l-.07-1.51h-.04c-.49.97-1.55,1.71-2.97,1.71-2.11,0-3.73-1.78-3.73-4.43-.02-2.9,1.78-4.68,3.91-4.68,1.33,0,2.23.63,2.63,1.33h.04v-5.2h1.58Zm-1.58,7.62c0-.2-.02-.47-.07-.67-.23-1.01-1.1-1.84-2.29-1.84-1.64,0-2.61,1.44-2.61,3.37,0,1.76.86,3.22,2.57,3.22,1.06,0,2.04-.7,2.32-1.89.05-.22.07-.43.07-.68v-1.51Z"/>
        <path class="cls-2" d="m76.12,33.68c-.09-1.69-.2-3.73-.18-5.24h-.05c-.41,1.42-.92,2.94-1.53,4.61l-2.14,5.89h-1.19l-1.96-5.78c-.58-1.71-1.06-3.28-1.4-4.72h-.04c-.04,1.51-.13,3.55-.23,5.37l-.32,5.2h-1.5l.85-12.14h2l2.07,5.87c.5,1.49.92,2.83,1.22,4.09h.05c.31-1.22.74-2.56,1.28-4.09l2.16-5.87h2l.76,12.14h-1.53l-.31-5.33Z"/>
        <path class="cls-2" d="m88.3,34.58c0,3.22-2.23,4.63-4.34,4.63-2.36,0-4.18-1.73-4.18-4.48,0-2.92,1.91-4.63,4.32-4.63s4.2,1.82,4.2,4.48Zm-6.91.09c0,1.91,1.1,3.35,2.65,3.35s2.65-1.42,2.65-3.38c0-1.48-.74-3.35-2.61-3.35s-2.68,1.73-2.68,3.39Z"/>
        <path class="cls-2" d="m90.3,33.01c0-1.03-.02-1.91-.07-2.72h1.39l.05,1.71h.07c.4-1.17,1.35-1.91,2.41-1.91.18,0,.31.02.45.05v1.49c-.16-.04-.32-.05-.54-.05-1.12,0-1.91.85-2.12,2.03-.04.22-.07.47-.07.74v4.65h-1.57v-6Z"/>
        <path class="cls-2" d="m96.89,34.94c.04,2.14,1.4,3.03,2.99,3.03,1.13,0,1.82-.2,2.41-.45l.27,1.13c-.56.25-1.51.54-2.9.54-2.68,0-4.29-1.76-4.29-4.39s1.55-4.7,4.09-4.7c2.84,0,3.6,2.5,3.6,4.11,0,.32-.04.58-.05.74h-6.12Zm4.65-1.13c.02-1.01-.41-2.58-2.2-2.58-1.6,0-2.3,1.48-2.43,2.58h4.63Z"/>
      </g>
    </g>
  </g>
</svg>